<svg width="32" height="27" viewBox="0 0 32 27" fill="none" xmlns="http://www.w3.org/2000/svg">
<path d="M29.037 4.15385H24L22.8 0.786264C22.7171 0.55583 22.5652 0.356644 22.365 0.215917C22.1648 0.0751898 21.9261 -0.000216081 21.6815 4.65093e-07H10.3185C9.81852 4.65093e-07 9.37037 0.315248 9.2037 0.786264L8 4.15385H2.96296C1.32593 4.15385 0 5.48159 0 7.12088V24.033C0 25.6723 1.32593 27 2.96296 27H29.037C30.6741 27 32 25.6723 32 24.033V7.12088C32 5.48159 30.6741 4.15385 29.037 4.15385ZM29.3333 24.033C29.3333 24.1962 29.2 24.3297 29.037 24.3297H2.96296C2.8 24.3297 2.66667 24.1962 2.66667 24.033V7.12088C2.66667 6.95769 2.8 6.82418 2.96296 6.82418H9.87778L10.5111 5.05137L11.3593 2.67033H20.637L21.4852 5.05137L22.1185 6.82418H29.037C29.2 6.82418 29.3333 6.95769 29.3333 7.12088V24.033ZM16 9.1978C12.7259 9.1978 10.0741 11.8533 10.0741 15.1319C10.0741 18.4104 12.7259 21.0659 16 21.0659C19.2741 21.0659 21.9259 18.4104 21.9259 15.1319C21.9259 11.8533 19.2741 9.1978 16 9.1978ZM16 18.6923C14.037 18.6923 12.4444 17.0975 12.4444 15.1319C12.4444 13.1662 14.037 11.5714 16 11.5714C17.963 11.5714 19.5556 13.1662 19.5556 15.1319C19.5556 17.0975 17.963 18.6923 16 18.6923Z" fill="black"/>
</svg>
