<svg width="31" height="52" viewBox="0 0 31 52" fill="none" xmlns="http://www.w3.org/2000/svg">
<path fill-rule="evenodd" clip-rule="evenodd" d="M7.17004 1.83333C4.1785 1.83333 1.75338 4.25846 1.75338 7.25V9.75H0.920044V7.25C0.920044 3.79822 3.71826 1 7.17004 1H23.8367C27.2885 1 30.0867 3.79822 30.0867 7.25V44.75C30.0867 48.2018 27.2885 51 23.8367 51H7.17005C3.71826 51 0.920044 48.2018 0.920044 44.75V34.7596H1.75338V44.75C1.75338 47.7415 4.1785 50.1667 7.17005 50.1667H23.8367C26.8283 50.1667 29.2534 47.7415 29.2534 44.75V7.25C29.2534 4.25846 26.8283 1.83333 23.8367 1.83333H7.17004Z" fill="white" stroke="white"/>
</svg>
