<svg width="37" height="36" viewBox="0 0 37 36" fill="none" xmlns="http://www.w3.org/2000/svg">
<path d="M19.5446 0.75V3.75C27.3378 3.75 33.6174 9.774 33.6174 17.25H36.7447C36.7447 8.1555 29.0234 0.75 19.5446 0.75ZM19.5446 6.75V9.75C23.8806 9.75 27.3628 13.0905 27.3628 17.25H30.4901C30.4901 11.4675 25.5725 6.75 19.5446 6.75ZM6.10657 6.891L5.03234 7.9215C-1.64445 14.3265 -1.64445 24.7665 5.03234 31.1715C11.7091 37.5765 22.5921 37.5765 29.2689 31.1715L30.3432 30.141L29.2689 29.0625L20.6688 20.8125C22.2685 20.343 23.4537 18.9435 23.4537 17.25C23.4537 15.1815 21.7009 13.5 19.5446 13.5C17.7792 13.5 16.3188 14.637 15.8309 16.1715L7.23083 7.9215L6.10657 6.891ZM6.35206 11.3445L25.7007 29.9055C20.1982 34.095 12.3252 33.9495 7.23083 29.0625C2.13646 24.1755 1.98479 16.623 6.3505 11.343L6.35206 11.3445Z" fill="white"/>
</svg>
