<svg width="49" height="47" viewBox="0 0 49 47" fill="none" xmlns="http://www.w3.org/2000/svg">
<rect x="1.5" y="17.3362" width="4.55906" height="27.1639" stroke="white" stroke-width="3"/>
<path d="M16.2519 27.5247L21.1211 16.8382C21.6085 15.7685 22.6756 15.082 23.8511 15.082H39.912C41.1435 15.082 42.25 15.8347 42.7023 16.9802L46.8661 27.5247M16.2519 27.5247V36.2132C16.2519 37.87 17.5951 39.2132 19.2519 39.2132H43.8661C45.523 39.2132 46.8661 37.87 46.8661 36.2132V27.5247M16.2519 27.5247H46.8661M14.3622 44.8689H21.9212" stroke="white" stroke-width="3"/>
<path d="M39.6851 45.2458H48" stroke="white" stroke-width="3"/>
<path d="M5.29132 9.80322H11.3386" stroke="white" stroke-width="3"/>
<path d="M8.31494 7.16406V12.4428" stroke="white" stroke-width="3"/>
<path d="M5.29132 9.42603H11.3386" stroke="white" stroke-width="3"/>
<path d="M12.8503 6.40991H18.8976" stroke="white" stroke-width="3"/>
<path d="M22.6772 2.6394H28.7245" stroke="white" stroke-width="3"/>
<path d="M8.31494 6.78687V12.0656" stroke="white" stroke-width="3"/>
<path d="M15.874 3.77051V9.0492" stroke="white" stroke-width="3"/>
<path d="M25.7008 0V5.27869" stroke="white" stroke-width="3"/>
</svg>
