<svg width="45" height="45" viewBox="0 0 45 45" fill="none" xmlns="http://www.w3.org/2000/svg">
<path d="M7.55941 12.0742C7.32777 8.45228 8.3933 1.37558 14.5086 2.04424C20.6238 2.71291 22.1526 9.0095 22.1526 12.0742C22.3842 8.73089 24.2374 2.04424 29.7967 2.04424C35.356 2.04424 36.7458 8.73089 36.7458 12.0742" stroke="white" stroke-width="3"/>
<path d="M2 34.6415V15.9099C2 14.2531 3.34315 12.9099 5 12.9099H40C41.6569 12.9099 43 14.2531 43 15.9099V34.6415M2 34.6415V39.9998C2 41.6567 3.34315 42.9998 5 42.9998H40C41.6569 42.9998 43 41.6567 43 39.9998V34.6415M2 34.6415H43" stroke="white" stroke-width="3"/>
</svg>
