<svg width="48" height="48" viewBox="0 0 48 48" fill="none" xmlns="http://www.w3.org/2000/svg">
<path d="M25 11L19 20H23V26L29 17H25V11Z" fill="white"/>
<path d="M25 11L19 20H23V26L29 17H25V11Z" stroke="white"/>
<path d="M37.91 18.273C37.6066 20.8484 36.5713 23.2828 34.927 25.288C33.965 26.463 31.52 29.82 31 32H17C16.48 29.818 14.032 26.461 13.07 25.285C11.4265 23.2789 10.3923 20.8437 10.09 18.268C9.79199 15.6978 10.2405 13.0961 11.382 10.774C12.5343 8.43423 14.3253 6.46844 16.548 5.104C18.7901 3.72624 21.3705 2.99787 24.002 3C26.64 3 29.224 3.73 31.456 5.107C33.6782 6.47196 35.4686 8.43809 36.62 10.778C37.761 13.1006 38.2089 15.7026 37.91 18.273ZM29.583 30H18.416C17.99 29.017 17.421 28.032 16.891 27.195C16.1936 26.095 15.4351 25.0351 14.619 24.02C13.2172 22.3096 12.3351 20.2333 12.077 18.037C11.823 15.8482 12.2049 13.6325 13.177 11.655C14.1631 9.65413 15.6956 7.97331 17.597 6.807C19.5236 5.62347 21.7409 4.99792 24.002 5C26.272 5 28.492 5.629 30.407 6.81C32.3078 7.97656 33.8395 9.65736 34.825 11.658C35.7967 13.636 36.1779 15.852 35.923 18.041C35.664 20.2368 34.7812 22.3124 33.379 24.022C32.5626 25.0365 31.8043 26.0966 31.108 27.197C30.578 28.034 30.01 29.017 29.584 30H29.583Z" fill="white"/>
<path d="M37.91 18.273C37.6066 20.8484 36.5713 23.2828 34.927 25.288C33.965 26.463 31.52 29.82 31 32H17C16.48 29.818 14.032 26.461 13.07 25.285C11.4265 23.2789 10.3923 20.8437 10.09 18.268C9.79199 15.6978 10.2405 13.0961 11.382 10.774C12.5343 8.43423 14.3253 6.46844 16.548 5.104C18.7901 3.72624 21.3705 2.99787 24.002 3C26.64 3 29.224 3.73 31.456 5.107C33.6782 6.47196 35.4686 8.43809 36.62 10.778C37.761 13.1006 38.2089 15.7026 37.91 18.273ZM29.583 30H18.416C17.99 29.017 17.421 28.032 16.891 27.195C16.1936 26.095 15.4351 25.0351 14.619 24.02C13.2172 22.3096 12.3351 20.2333 12.077 18.037C11.823 15.8482 12.2049 13.6325 13.177 11.655C14.1631 9.65413 15.6956 7.97331 17.597 6.807C19.5236 5.62347 21.7409 4.99792 24.002 5C26.272 5 28.492 5.629 30.407 6.81C32.3078 7.97656 33.8395 9.65736 34.825 11.658C35.7967 13.636 36.1779 15.852 35.923 18.041C35.664 20.2368 34.7812 22.3124 33.379 24.022C32.5626 25.0365 31.8043 26.0966 31.108 27.197C30.578 28.034 30.01 29.017 29.584 30H29.583Z" stroke="white"/>
<path d="M17 35C17 34.7348 17.1054 34.4804 17.2929 34.2929C17.4805 34.1054 17.7348 34 18 34H30C30.2652 34 30.5196 34.1054 30.7071 34.2929C30.8947 34.4804 31 34.7348 31 35C31 35.2652 30.8947 35.5196 30.7071 35.7071C30.5196 35.8946 30.2652 36 30 36H18C17.7348 36 17.4805 35.8946 17.2929 35.7071C17.1054 35.5196 17 35.2652 17 35Z" fill="white"/>
<path d="M17 35C17 34.7348 17.1054 34.4804 17.2929 34.2929C17.4805 34.1054 17.7348 34 18 34H30C30.2652 34 30.5196 34.1054 30.7071 34.2929C30.8947 34.4804 31 34.7348 31 35C31 35.2652 30.8947 35.5196 30.7071 35.7071C30.5196 35.8946 30.2652 36 30 36H18C17.7348 36 17.4805 35.8946 17.2929 35.7071C17.1054 35.5196 17 35.2652 17 35Z" stroke="white"/>
<path d="M17 38H31V41C31 41.5304 30.7893 42.0391 30.4142 42.4142C30.0392 42.7893 29.5305 43 29 43H19C18.4696 43 17.9609 42.7893 17.5858 42.4142C17.2107 42.0391 17 41.5304 17 41V38ZM19 40H29V41H19V40Z" fill="white"/>
<path d="M17 38H31V41C31 41.5304 30.7893 42.0391 30.4142 42.4142C30.0392 42.7893 29.5305 43 29 43H19C18.4696 43 17.9609 42.7893 17.5858 42.4142C17.2107 42.0391 17 41.5304 17 41V38ZM19 40H29V41H19V40Z" stroke="white"/>
</svg>
