<svg width="39" height="47" viewBox="0 0 39 47" fill="none" xmlns="http://www.w3.org/2000/svg">
<path d="M7.73065 44.9797V33.5184H14.8939V44.9797H7.73065Z" stroke="white" stroke-width="3"/>
<path d="M23.4898 44.9796H3C2.44771 44.9796 2 44.5319 2 43.9796V9.19097C2 8.74936 2.28967 8.36004 2.71265 8.23314L22.2024 2.3862C22.8441 2.19372 23.4898 2.67417 23.4898 3.34403V12.7449M23.4898 44.9796V12.7449M23.4898 44.9796H36.1C36.6523 44.9796 37.1 44.5319 37.1 43.9796V13.7449C37.1 13.1926 36.6523 12.7449 36.1 12.7449H23.4898" stroke="white" stroke-width="3"/>
<path d="M4.14899 13.4613H10.4527" stroke="white" stroke-width="3"/>
<path d="M12.1717 13.4614H18.4754" stroke="white" stroke-width="3"/>
<path d="M27.7878 19.9082H32.8021" stroke="white" stroke-width="3"/>
<path d="M4.14899 20.1471H10.4527" stroke="white" stroke-width="3"/>
<path d="M12.1717 20.1472H18.4754" stroke="white" stroke-width="3"/>
<path d="M27.7878 28.5042H32.8021" stroke="white" stroke-width="3"/>
<path d="M4.14899 26.8324H10.4527" stroke="white" stroke-width="3"/>
<path d="M12.1717 26.8323H18.4754" stroke="white" stroke-width="3"/>
<path d="M27.7878 37.1H32.8021" stroke="white" stroke-width="3"/>
</svg>
