<svg width="25" height="39" viewBox="0 0 25 39" fill="none" xmlns="http://www.w3.org/2000/svg">
<path d="M22.0278 0.444336H2.97222C2.25024 0.444336 1.55784 0.731141 1.04732 1.24166C0.536805 1.75217 0.25 2.44458 0.25 3.16656V35.8332C0.25 36.5552 0.536805 37.2476 1.04732 37.7581C1.55784 38.2687 2.25024 38.5555 2.97222 38.5555H22.0278C22.7498 38.5555 23.4422 38.2687 23.9527 37.7581C24.4632 37.2476 24.75 36.5552 24.75 35.8332V3.16656C24.75 2.44458 24.4632 1.75217 23.9527 1.24166C23.4422 0.731141 22.7498 0.444336 22.0278 0.444336ZM13.8611 35.8332H11.1389V33.111H13.8611V35.8332ZM2.97222 30.3888V3.16656H22.0278V30.3888H2.97222Z" fill="white"/>
</svg>
