<svg width="46" height="48" viewBox="0 0 46 48" fill="none" xmlns="http://www.w3.org/2000/svg">
<path d="M29.419 4.18901C29.329 4.11681 29.2255 4.06314 29.1147 4.03109C29.0038 3.99904 28.8877 3.98924 28.773 4.00225C28.6583 4.01526 28.5473 4.05083 28.4465 4.10691C28.3456 4.16299 28.2568 4.23847 28.1852 4.32901L20.13 14.5H15.6658L25.443 2.15551C25.8008 1.70359 26.2444 1.32684 26.7483 1.04691C27.2522 0.766985 27.8065 0.589393 28.3792 0.524345C28.952 0.459296 29.532 0.508073 30.0858 0.667873C30.6396 0.827673 31.1564 1.09534 31.6065 1.45551L40.6138 8.67076C41.4654 9.35317 42.0313 10.3292 42.2003 11.4074C42.3693 12.4856 42.1292 13.588 41.5272 14.4983H36.9528L38.54 12.6573C38.6169 12.5682 38.675 12.4646 38.7109 12.3526C38.7468 12.2406 38.7597 12.1225 38.7489 12.0053C38.7381 11.8882 38.7039 11.7745 38.6481 11.6709C38.5924 11.5673 38.5163 11.476 38.4245 11.4025L34.0425 7.89201L28.8485 14.5H24.3965L31.309 5.70451L29.419 4.18901ZM5.5 9.25001C4.10761 9.25001 2.77226 9.80313 1.78769 10.7877C0.803124 11.7723 0.25 13.1076 0.25 14.5V39.875C0.25 41.9636 1.07968 43.9666 2.55653 45.4435C4.03338 46.9203 6.03642 47.75 8.125 47.75H37.875C39.9636 47.75 41.9666 46.9203 43.4435 45.4435C44.9203 43.9666 45.75 41.9636 45.75 39.875V24.125C45.75 22.0364 44.9203 20.0334 43.4435 18.5565C41.9666 17.0797 39.9636 16.25 37.875 16.25H5.5C5.03587 16.25 4.59075 16.0656 4.26256 15.7374C3.93437 15.4093 3.75 14.9641 3.75 14.5C3.75 14.0359 3.93437 13.5908 4.26256 13.2626C4.59075 12.9344 5.03587 12.75 5.5 12.75H13.515L16.308 9.25001H5.5ZM31.75 30.25H37C37.4641 30.25 37.9092 30.4344 38.2374 30.7626C38.5656 31.0908 38.75 31.5359 38.75 32C38.75 32.4641 38.5656 32.9093 38.2374 33.2374C37.9092 33.5656 37.4641 33.75 37 33.75H31.75C31.2859 33.75 30.8407 33.5656 30.5126 33.2374C30.1844 32.9093 30 32.4641 30 32C30 31.5359 30.1844 31.0908 30.5126 30.7626C30.8407 30.4344 31.2859 30.25 31.75 30.25Z" fill="black"/>
</svg>
