<svg width="10" height="14" viewBox="0 0 10 14" fill="none" xmlns="http://www.w3.org/2000/svg">
<path d="M6.28229 13.26C6.17951 13.26 6.08008 13.2416 5.98398 13.2048C5.88737 13.1679 5.80052 13.1127 5.72344 13.039L1.07917 8.41642C0.989236 8.33047 0.915493 8.21383 0.857937 8.0665C0.799868 7.91917 0.770833 7.78411 0.770833 7.66133C0.770833 7.37894 0.876695 7.13634 1.08842 6.93351C1.30065 6.73117 1.55451 6.63 1.85 6.63H3.46875C4.14965 6.63 4.73754 6.41809 5.23242 5.99426C5.72678 5.57092 6.02535 5.04617 6.12812 4.42H0.770833C0.552431 4.42 0.369229 4.34928 0.221229 4.20784C0.0737432 4.06689 0 3.89206 0 3.68333C0 3.47461 0.0737432 3.29953 0.221229 3.15809C0.369229 3.01714 0.552431 2.94667 0.770833 2.94667H5.89687C5.67847 2.51694 5.35421 2.16384 4.92408 1.88734C4.49344 1.61134 4.00833 1.47333 3.46875 1.47333H0.770833C0.552431 1.47333 0.369229 1.40261 0.221229 1.26117C0.0737432 1.12022 0 0.945389 0 0.736667C0 0.527944 0.0737432 0.352863 0.221229 0.211423C0.369229 0.0704744 0.552431 0 0.770833 0H8.47917C8.69757 0 8.88051 0.0704744 9.028 0.211423C9.176 0.352863 9.25 0.527944 9.25 0.736667C9.25 0.945389 9.176 1.12022 9.028 1.26117C8.88051 1.40261 8.69757 1.47333 8.47917 1.47333H6.74479C6.92465 1.68206 7.08524 1.90919 7.22656 2.15475C7.36788 2.40031 7.47708 2.66428 7.55417 2.94667H8.47917C8.69757 2.94667 8.88051 3.01714 9.028 3.15809C9.176 3.29953 9.25 3.47461 9.25 3.68333C9.25 3.89206 9.176 4.06689 9.028 4.20784C8.88051 4.34928 8.69757 4.42 8.47917 4.42H7.68906C7.58628 5.46361 7.13663 6.33828 6.3401 7.04401C5.54358 7.75022 4.58646 8.10333 3.46875 8.10333H2.9099L6.84115 12.0077C7.0724 12.2409 7.12044 12.5079 6.98529 12.8084C6.85065 13.1095 6.61632 13.26 6.28229 13.26Z" fill="black"/>
</svg>
