<svg width="48" height="35" viewBox="0 0 48 35" fill="none" xmlns="http://www.w3.org/2000/svg">
<path d="M9.53117 1.87977C9.47585 1.6901 9.38283 1.51354 9.25768 1.36066C9.13254 1.20778 8.97783 1.08172 8.80283 0.990028C8.62782 0.898334 8.43612 0.84289 8.23918 0.827015C8.04225 0.81114 7.84414 0.835159 7.65671 0.897637C7.46928 0.960114 7.29638 1.05976 7.14836 1.19062C7.00034 1.32148 6.88024 1.48086 6.79525 1.65922C6.71026 1.83758 6.66213 2.03125 6.65374 2.22864C6.64535 2.42603 6.67687 2.62309 6.74642 2.80802L11.9752 18.5001H5.20129C4.03268 18.5001 2.91194 18.9644 2.0856 19.7907C1.25927 20.617 0.795044 21.7378 0.795044 22.9064L0.795044 28.7814C0.795044 29.95 1.25927 31.0708 2.0856 31.8971C2.91194 32.7234 4.03268 33.1876 5.20129 33.1876H6.67004C6.67004 33.5772 6.82479 33.9508 7.10023 34.2262C7.37568 34.5017 7.74926 34.6564 8.13879 34.6564H14.0138C14.4033 34.6564 14.7769 34.5017 15.0524 34.2262C15.3278 33.9508 15.4825 33.5772 15.4825 33.1876H33.1075C33.1075 33.5772 33.2623 33.9508 33.5377 34.2262C33.8132 34.5017 34.1868 34.6564 34.5763 34.6564H40.4513C40.8408 34.6564 41.2144 34.5017 41.4899 34.2262C41.7653 33.9508 41.92 33.5772 41.92 33.1876H43.3888C44.5574 33.1876 45.6782 32.7234 46.5045 31.8971C47.3308 31.0708 47.795 29.95 47.795 28.7814V22.9064C47.795 21.7378 47.3308 20.617 46.5045 19.7907C45.6782 18.9644 44.5574 18.5001 43.3888 18.5001H36.6149L41.8437 2.80802C41.9132 2.62309 41.9447 2.42603 41.9363 2.22864C41.928 2.03125 41.8798 1.83758 41.7948 1.65922C41.7099 1.48086 41.5898 1.32148 41.4417 1.19062C41.2937 1.05976 41.1208 0.960114 40.9334 0.897637C40.7459 0.835159 40.5478 0.81114 40.3509 0.827015C40.154 0.84289 39.9623 0.898334 39.7873 0.990028C39.6123 1.08172 39.4576 1.20778 39.3324 1.36066C39.2073 1.51354 39.1142 1.6901 39.0589 1.87977L33.5188 18.5001H15.0713L9.53117 1.87977ZM43.3888 21.4376C43.7783 21.4376 44.1519 21.5924 44.4274 21.8678C44.7028 22.1433 44.8575 22.5169 44.8575 22.9064V28.7814C44.8575 29.1709 44.7028 29.5445 44.4274 29.82C44.1519 30.0954 43.7783 30.2501 43.3888 30.2501H5.20129C4.81176 30.2501 4.43817 30.0954 4.16273 29.82C3.88729 29.5445 3.73254 29.1709 3.73254 28.7814V22.9064C3.73254 22.5169 3.88729 22.1433 4.16273 21.8678C4.43817 21.5924 4.81176 21.4376 5.20129 21.4376H43.3888Z" fill="white"/>
</svg>
