<svg width="8" height="17" viewBox="0 0 8 17" fill="none" xmlns="http://www.w3.org/2000/svg">
<path d="M6.67399 0.666574C6.50467 0.665998 6.33738 0.703366 6.18441 0.775932C6.03143 0.848498 5.89666 0.954418 5.78999 1.08591L0.315986 7.88591C0.149294 8.0887 0.0581665 8.34307 0.0581665 8.60558C0.0581665 8.86809 0.149294 9.12245 0.315986 9.32525L5.98266 16.1252C6.17503 16.3567 6.45146 16.5022 6.75114 16.5299C7.05082 16.5575 7.34921 16.465 7.58066 16.2726C7.8121 16.0802 7.95765 15.8038 7.98528 15.5041C8.01291 15.2044 7.92036 14.906 7.72799 14.6746L2.66199 8.59991L7.55799 2.52524C7.69658 2.35888 7.78461 2.15631 7.81167 1.94149C7.83874 1.72667 7.8037 1.50859 7.7107 1.31306C7.6177 1.11752 7.47064 0.952724 7.28692 0.838156C7.10319 0.723587 6.89049 0.664044 6.67399 0.666574Z" fill="#5B2D8F"/>
</svg>
