<svg width="9" height="16" viewBox="0 0 9 16" fill="none" xmlns="http://www.w3.org/2000/svg">
<path d="M7.07396 0.0683069C6.90465 0.0677319 6.73735 0.1051 6.58438 0.177666C6.4314 0.250232 6.29663 0.356152 6.18996 0.487642L0.715957 7.28764C0.549265 7.49044 0.458138 7.7448 0.458138 8.00731C0.458138 8.26982 0.549265 8.52419 0.715957 8.72698L6.38263 15.527C6.575 15.7584 6.85143 15.904 7.15111 15.9316C7.4508 15.9592 7.74918 15.8667 7.98063 15.6743C8.21207 15.4819 8.35762 15.2055 8.38525 14.9058C8.41288 14.6061 8.32033 14.3078 8.12796 14.0763L3.06196 8.00164L7.95796 1.92697C8.09655 1.76062 8.18458 1.55805 8.21164 1.34322C8.23871 1.1284 8.20367 0.910321 8.11067 0.714789C8.01768 0.519258 7.87061 0.354458 7.68689 0.239889C7.50316 0.12532 7.29046 0.0657778 7.07396 0.0683069Z" fill="#5B2D8F"/>
</svg>
