<svg width="25" height="28" viewBox="0 0 25 28" fill="none" xmlns="http://www.w3.org/2000/svg">
<path fill-rule="evenodd" clip-rule="evenodd" d="M10.2911 0.406722C11.2582 0.142876 12.1697 0.098899 12.8547 0.290801L13.0842 0.355091L13.0288 0.586886C11.9299 5.18622 13.0091 8.10375 14.7531 9.89839C16.5116 11.7079 18.9849 12.4163 20.7303 12.5077L20.9429 12.5188L20.9639 12.7306C21.0314 13.4118 21.2562 14.534 21.71 15.6629C22.1651 16.7948 22.8394 17.9056 23.7892 18.5974L23.8053 18.6091L23.8193 18.6233C24.2628 19.0705 24.506 19.5149 24.5839 19.9484C24.6621 20.3839 24.5686 20.7827 24.3844 21.1276C24.0232 21.8042 23.3061 22.2908 22.7713 22.536L22.725 22.5572L22.6741 22.5584C19.7934 22.6287 15.3053 22.7131 11.2023 22.7377C7.10924 22.7622 3.37341 22.7278 2.01551 22.5566C1.38551 22.4771 0.914716 22.2688 0.584729 21.9623C0.253609 21.6548 0.0838861 21.2667 0.0248947 20.8647C-0.0910344 20.0746 0.215105 19.2094 0.587271 18.6589L0.622101 18.6074L0.677135 18.5785C1.14311 18.3333 1.91323 17.5738 2.56835 16.0709C3.21999 14.5758 3.74948 12.3622 3.74948 9.24192C3.74948 5.78282 5.36395 3.35906 7.30274 1.895C8.27008 1.16451 9.3191 0.671876 10.2911 0.406722ZM7.60129 2.29035C5.77174 3.67192 4.24489 5.95578 4.24489 9.24192C4.24489 12.4172 3.70614 14.7004 3.02249 16.2688C2.36378 17.78 1.56247 18.6443 0.965533 18.9852C0.656842 19.4657 0.425085 20.1796 0.515058 20.7927C0.560567 21.1029 0.686931 21.3811 0.921859 21.5993C1.15792 21.8185 1.52313 21.9952 2.07748 22.065C3.39482 22.2311 7.09016 22.2669 11.1993 22.2423C15.2739 22.2178 19.7298 22.1344 22.6101 22.0644C23.0888 21.836 23.6673 21.4189 23.9474 20.8943C24.0883 20.6303 24.1516 20.344 24.0963 20.0359C24.0412 19.7293 23.8642 19.3762 23.481 18.9858C22.4335 18.2157 21.7194 17.0143 21.2504 15.8477C20.8209 14.7794 20.5876 13.7172 20.4947 12.9889C18.6786 12.8493 16.1971 12.0951 14.3979 10.2437C12.5464 8.33852 11.4547 5.31025 12.4903 0.715752C11.9414 0.618855 11.2201 0.666776 10.4214 0.884669C9.51001 1.13331 8.51811 1.59801 7.60129 2.29035ZM7.69905 23.4684H17.1933L17.0588 23.8074C16.8156 24.4207 16.296 25.3296 15.5176 26.0891C14.7378 26.8501 13.6805 27.4769 12.3699 27.4769C11.0581 27.4769 10.023 26.8491 9.27085 26.0856C8.52096 25.3244 8.03651 24.4138 7.81719 23.7993L7.69905 23.4684ZM8.41751 23.9638C8.65445 24.4934 9.05786 25.1635 9.62377 25.7379C10.3138 26.4383 11.2293 26.9815 12.3699 26.9815C13.5115 26.9815 14.4514 26.4373 15.1717 25.7345C15.7591 25.1613 16.1887 24.4933 16.4476 23.9638H8.41751Z" fill="#5B2D8F"/>
</svg>
