<svg width="48" height="47" viewBox="0 0 48 47" fill="none" xmlns="http://www.w3.org/2000/svg">
<g clip-path="url(#clip0_559_5883)">
<path d="M17.0248 8.88605C17.9795 7.93124 19.1129 7.17383 20.3604 6.65709C21.6078 6.14034 22.9448 5.87437 24.2951 5.87437C25.6453 5.87437 26.9823 6.14034 28.2298 6.65709C29.4772 7.17383 30.6107 7.93124 31.5654 8.88605C31.7009 9.02633 31.8629 9.13822 32.0421 9.2152C32.2213 9.29218 32.4141 9.33269 32.6091 9.33439C32.8041 9.33608 32.9975 9.29892 33.178 9.22507C33.3585 9.15122 33.5225 9.04216 33.6604 8.90426C33.7983 8.76635 33.9074 8.60236 33.9812 8.42186C34.0551 8.24135 34.0922 8.04795 34.0905 7.85293C34.0888 7.65791 34.0483 7.46518 33.9713 7.28599C33.8944 7.1068 33.7825 6.94473 33.6422 6.80924C32.4147 5.58175 30.9575 4.60805 29.3537 3.94373C27.7499 3.27942 26.031 2.9375 24.2951 2.9375C22.5591 2.9375 20.8402 3.27942 19.2364 3.94373C17.6326 4.60805 16.1754 5.58175 14.9479 6.80924C14.6804 7.08625 14.5324 7.45726 14.5357 7.84236C14.539 8.22746 14.6935 8.59584 14.9658 8.86816C15.2381 9.14048 15.6065 9.29495 15.9916 9.29829C16.3767 9.30164 16.7477 9.1536 17.0248 8.88605Z" fill="white"/>
<path d="M21.1813 13.0426C22.0075 12.2175 23.1274 11.754 24.295 11.754C25.4627 11.754 26.5826 12.2175 27.4088 13.0426C27.6846 13.3184 28.0586 13.4734 28.4487 13.4734C28.8387 13.4734 29.2128 13.3184 29.4885 13.0426C29.7643 12.7669 29.9193 12.3928 29.9193 12.0028C29.9193 11.6127 29.7643 11.2387 29.4885 10.9629C28.8066 10.2808 27.9969 9.73965 27.1058 9.37047C26.2147 9.00129 25.2596 8.81128 24.295 8.81128C23.3305 8.81128 22.3754 9.00129 21.4843 9.37047C20.5932 9.73965 19.7835 10.2808 19.1015 10.9629C18.834 11.2399 18.686 11.6109 18.6893 11.996C18.6926 12.3811 18.8471 12.7495 19.1194 13.0218C19.3918 13.2941 19.7601 13.4486 20.1452 13.452C20.5303 13.4553 20.9013 13.3073 21.1784 13.0397L21.1813 13.0426ZM8.13879 32.3126C7.74926 32.3126 7.37568 32.1579 7.10023 31.8825C6.82479 31.607 6.67004 31.2334 6.67004 30.8439C6.67004 30.4544 6.82479 30.0808 7.10023 29.8053C7.37568 29.5299 7.74926 29.3751 8.13879 29.3751C8.52833 29.3751 8.90191 29.5299 9.17736 29.8053C9.4528 30.0808 9.60754 30.4544 9.60754 30.8439C9.60754 31.2334 9.4528 31.607 9.17736 31.8825C8.90191 32.1579 8.52833 32.3126 8.13879 32.3126ZM21.3575 30.8439C21.3575 31.2334 21.5123 31.607 21.7877 31.8825C22.0632 32.1579 22.4368 32.3126 22.8263 32.3126C23.2158 32.3126 23.5894 32.1579 23.8649 31.8825C24.1403 31.607 24.295 31.2334 24.295 30.8439C24.295 30.4544 24.1403 30.0808 23.8649 29.8053C23.5894 29.5299 23.2158 29.3751 22.8263 29.3751C22.4368 29.3751 22.0632 29.5299 21.7877 29.8053C21.5123 30.0808 21.3575 30.4544 21.3575 30.8439ZM28.7013 32.3126C28.3118 32.3126 27.9382 32.1579 27.6627 31.8825C27.3873 31.607 27.2325 31.2334 27.2325 30.8439C27.2325 30.4544 27.3873 30.0808 27.6627 29.8053C27.9382 29.5299 28.3118 29.3751 28.7013 29.3751C29.0908 29.3751 29.4644 29.5299 29.7399 29.8053C30.0153 30.0808 30.17 30.4544 30.17 30.8439C30.17 31.2334 30.0153 31.607 29.7399 31.8825C29.4644 32.1579 29.0908 32.3126 28.7013 32.3126ZM33.1075 30.8439C33.1075 31.2334 33.2623 31.607 33.5377 31.8825C33.8132 32.1579 34.1868 32.3126 34.5763 32.3126C34.9658 32.3126 35.3394 32.1579 35.6149 31.8825C35.8903 31.607 36.045 31.2334 36.045 30.8439C36.045 30.4544 35.8903 30.0808 35.6149 29.8053C35.3394 29.5299 34.9658 29.3751 34.5763 29.3751C34.1868 29.3751 33.8132 29.5299 33.5377 29.8053C33.2623 30.0808 33.1075 30.4544 33.1075 30.8439ZM38.9825 30.8439C38.9825 31.2334 39.1373 31.607 39.4127 31.8825C39.6882 32.1579 40.0618 32.3126 40.4513 32.3126C40.8408 32.3126 41.2144 32.1579 41.4899 31.8825C41.7653 31.607 41.92 31.2334 41.92 30.8439C41.92 30.4544 41.7653 30.0808 41.4899 29.8053C41.2144 29.5299 40.8408 29.3751 40.4513 29.3751C40.0618 29.3751 39.6882 29.5299 39.4127 29.8053C39.1373 30.0808 38.9825 30.4544 38.9825 30.8439Z" fill="white"/>
<path d="M9.53117 6.87977C9.47585 6.6901 9.38283 6.51354 9.25768 6.36066C9.13254 6.20778 8.97783 6.08172 8.80282 5.99003C8.62782 5.89833 8.43612 5.84289 8.23918 5.82701C8.04225 5.81114 7.84414 5.83516 7.65671 5.89764C7.46928 5.96011 7.29638 6.05976 7.14836 6.19062C7.00034 6.32148 6.88024 6.48086 6.79525 6.65922C6.71026 6.83758 6.66213 7.03125 6.65374 7.22864C6.64535 7.42603 6.67687 7.62309 6.74642 7.80802L11.9752 23.5001H5.20129C4.03268 23.5001 2.91194 23.9644 2.0856 24.7907C1.25927 25.617 0.795044 26.7378 0.795044 27.9064L0.795044 33.7814C0.795044 34.95 1.25927 36.0708 2.0856 36.8971C2.91194 37.7234 4.03268 38.1876 5.20129 38.1876H6.67004C6.67004 38.5772 6.82479 38.9508 7.10023 39.2262C7.37568 39.5017 7.74926 39.6564 8.13879 39.6564H14.0138C14.4033 39.6564 14.7769 39.5017 15.0524 39.2262C15.3278 38.9508 15.4825 38.5772 15.4825 38.1876H33.1075C33.1075 38.5772 33.2623 38.9508 33.5377 39.2262C33.8132 39.5017 34.1868 39.6564 34.5763 39.6564H40.4513C40.8408 39.6564 41.2144 39.5017 41.4899 39.2262C41.7653 38.9508 41.92 38.5772 41.92 38.1876H43.3888C44.5574 38.1876 45.6782 37.7234 46.5045 36.8971C47.3308 36.0708 47.795 34.95 47.795 33.7814V27.9064C47.795 26.7378 47.3308 25.617 46.5045 24.7907C45.6782 23.9644 44.5574 23.5001 43.3888 23.5001H36.6149L41.8437 7.80802C41.9132 7.62309 41.9447 7.42603 41.9363 7.22864C41.928 7.03125 41.8798 6.83758 41.7948 6.65922C41.7099 6.48086 41.5898 6.32148 41.4417 6.19062C41.2937 6.05976 41.1208 5.96011 40.9334 5.89764C40.7459 5.83516 40.5478 5.81114 40.3509 5.82701C40.154 5.84289 39.9623 5.89833 39.7873 5.99003C39.6123 6.08172 39.4576 6.20778 39.3324 6.36066C39.2073 6.51354 39.1142 6.6901 39.0589 6.87977L33.5188 23.5001H15.0713L9.53117 6.87977ZM43.3888 26.4376C43.7783 26.4376 44.1519 26.5924 44.4274 26.8678C44.7028 27.1433 44.8575 27.5169 44.8575 27.9064V33.7814C44.8575 34.1709 44.7028 34.5445 44.4274 34.82C44.1519 35.0954 43.7783 35.2501 43.3888 35.2501H5.20129C4.81176 35.2501 4.43817 35.0954 4.16273 34.82C3.88729 34.5445 3.73254 34.1709 3.73254 33.7814V27.9064C3.73254 27.5169 3.88729 27.1433 4.16273 26.8678C4.43817 26.5924 4.81176 26.4376 5.20129 26.4376H43.3888Z" fill="white"/>
<path d="M25.7638 16.1562C25.7638 16.5458 25.6091 16.9194 25.3336 17.1948C25.0582 17.4703 24.6846 17.625 24.295 17.625C23.9055 17.625 23.5319 17.4703 23.2565 17.1948C22.981 16.9194 22.8263 16.5458 22.8263 16.1562C22.8263 15.7667 22.981 15.3931 23.2565 15.1177C23.5319 14.8422 23.9055 14.6875 24.295 14.6875C24.6846 14.6875 25.0582 14.8422 25.3336 15.1177C25.6091 15.3931 25.7638 15.7667 25.7638 16.1562Z" fill="white"/>
</g>
<defs>
<clipPath id="clip0_559_5883">
<rect width="47" height="47" fill="white" transform="translate(0.795044)"/>
</clipPath>
</defs>
</svg>
