<svg width="44" height="44" viewBox="0 0 44 44" fill="none" xmlns="http://www.w3.org/2000/svg">
<path d="M2 12V5C2 3.34315 3.34315 2 5 2H39C40.6569 2 42 3.34315 42 5V12M2 12V22V39C2 40.6569 3.34315 42 5 42H39C40.6569 42 42 40.6569 42 39V12M2 12H42M7.81818 30.5714H14.3636" stroke="white" stroke-width="3"/>
<path d="M18.7268 30.5702H23.8177" stroke="white" stroke-width="3"/>
<path d="M37.6363 24.8583C34.7272 22.4093 28.9091 19.9603 28.9091 29.7562C28.9091 39.5522 34.7272 37.1032 37.6363 34.6543" stroke="white" stroke-width="3"/>
</svg>
