<svg width="27" height="27" viewBox="0 0 27 27" fill="none" xmlns="http://www.w3.org/2000/svg">
<path d="M22.5417 3.16668H19.9583V1.87501C19.9583 1.53244 19.8222 1.2039 19.58 0.961664C19.3378 0.719429 19.0092 0.583344 18.6667 0.583344C18.3241 0.583344 17.9956 0.719429 17.7533 0.961664C17.5111 1.2039 17.375 1.53244 17.375 1.87501V3.16668H9.625V1.87501C9.625 1.53244 9.48891 1.2039 9.24668 0.961664C9.00444 0.719429 8.6759 0.583344 8.33333 0.583344C7.99076 0.583344 7.66222 0.719429 7.41998 0.961664C7.17775 1.2039 7.04166 1.53244 7.04166 1.87501V3.16668H4.45833C3.43061 3.16668 2.44499 3.57494 1.71829 4.30164C0.991586 5.02834 0.583328 6.01396 0.583328 7.04168V22.5417C0.583328 23.5694 0.991586 24.555 1.71829 25.2817C2.44499 26.0084 3.43061 26.4167 4.45833 26.4167H22.5417C23.5694 26.4167 24.555 26.0084 25.2817 25.2817C26.0084 24.555 26.4167 23.5694 26.4167 22.5417V7.04168C26.4167 6.01396 26.0084 5.02834 25.2817 4.30164C24.555 3.57494 23.5694 3.16668 22.5417 3.16668ZM23.8333 22.5417C23.8333 22.8843 23.6972 23.2128 23.455 23.455C23.2128 23.6973 22.8842 23.8333 22.5417 23.8333H4.45833C4.11576 23.8333 3.78722 23.6973 3.54498 23.455C3.30275 23.2128 3.16666 22.8843 3.16666 22.5417V13.5H23.8333V22.5417ZM23.8333 10.9167H3.16666V7.04168C3.16666 6.69911 3.30275 6.37057 3.54498 6.12833C3.78722 5.8861 4.11576 5.75001 4.45833 5.75001H7.04166V7.04168C7.04166 7.38425 7.17775 7.71279 7.41998 7.95502C7.66222 8.19726 7.99076 8.33334 8.33333 8.33334C8.6759 8.33334 9.00444 8.19726 9.24668 7.95502C9.48891 7.71279 9.625 7.38425 9.625 7.04168V5.75001H17.375V7.04168C17.375 7.38425 17.5111 7.71279 17.7533 7.95502C17.9956 8.19726 18.3241 8.33334 18.6667 8.33334C19.0092 8.33334 19.3378 8.19726 19.58 7.95502C19.8222 7.71279 19.9583 7.38425 19.9583 7.04168V5.75001H22.5417C22.8842 5.75001 23.2128 5.8861 23.455 6.12833C23.6972 6.37057 23.8333 6.69911 23.8333 7.04168V10.9167Z" fill="black"/>
</svg>
