<?xml version="1.0" standalone="no"?>
<!DOCTYPE svg PUBLIC "-//W3C//DTD SVG 20010904//EN"
 "http://www.w3.org/TR/2001/REC-SVG-20010904/DTD/svg10.dtd">
<svg version="1.0" xmlns="http://www.w3.org/2000/svg"
 width="2000.000000pt" height="2000.000000pt" viewBox="0 0 2000.000000 2000.000000"
 preserveAspectRatio="xMidYMid meet">

<g transform="translate(0.000000,2000.000000) scale(0.100000,-0.100000)"
fill="#000000" stroke="none">
<path d="M9915 19985 c-86 -19 -141 -42 -215 -91 -46 -31 -697 -675 -2282
-2261 l-2218 -2218 2490 -2490 2490 -2490 2224 2225 c1630 1631 2235 2242
2264 2288 54 84 82 170 89 274 8 112 -8 191 -59 298 l-40 85 -2116 2118
c-1165 1165 -2144 2138 -2178 2162 -76 56 -139 83 -232 101 -89 17 -137 17
-217 -1z m372 -3559 c416 -91 744 -386 871 -786 45 -142 55 -227 49 -402 -6
-171 -29 -275 -92 -421 -99 -228 -314 -455 -540 -569 -72 -37 -211 -84 -302
-104 -97 -20 -310 -23 -413 -5 -424 74 -774 373 -910 777 -90 265 -78 571 33
832 76 178 242 381 403 492 139 96 334 174 499 200 84 13 316 5 402 -14z"/>
<path d="M2508 12723 c-1629 -1631 -2387 -2396 -2412 -2435 -129 -204 -122
-458 18 -651 24 -34 998 -1014 2163 -2178 2079 -2078 2119 -2117 2193 -2153
112 -54 187 -70 300 -63 107 6 195 33 282 87 35 22 870 849 2436 2414 l2382
2381 -2487 2487 c-1369 1369 -2490 2488 -2493 2488 -3 0 -1075 -1070 -2382
-2377z m680 -1612 c440 -96 786 -438 887 -876 89 -381 -26 -791 -300 -1070
-366 -373 -928 -460 -1385 -214 -369 199 -610 600 -610 1015 0 590 430 1083
1015 1163 98 14 288 5 393 -18z m3568 -16 c485 -85 858 -455 950 -942 12 -67
15 -125 11 -243 -6 -191 -32 -302 -110 -464 -165 -341 -468 -572 -842 -641
-134 -25 -365 -17 -498 18 -195 52 -374 155 -523 302 -317 314 -426 773 -284
1197 134 400 481 697 902 773 101 18 288 18 394 0z"/>
<path d="M15126 14745 c-32 -9 -89 -29 -125 -47 -62 -29 -341 -306 -4854
-4817 -3370 -3369 -4798 -4802 -4822 -4841 -59 -97 -79 -171 -79 -295 -1 -138
23 -222 93 -327 38 -55 556 -579 2168 -2189 1978 -1976 2123 -2118 2188 -2151
102 -52 175 -71 280 -71 105 0 178 19 280 70 66 34 355 321 4851 4817 4496
4496 4783 4785 4817 4851 51 102 70 175 70 280 0 105 -19 178 -71 280 -33 65
-175 210 -2151 2188 -1605 1607 -2134 2130 -2189 2167 -40 27 -103 59 -140 71
-87 28 -235 34 -316 14z m419 -1816 c42 -126 75 -232 74 -233 -2 -2 -56 -28
-120 -59 -169 -81 -262 -173 -245 -242 21 -83 224 -72 377 21 96 58 245 79
371 53 86 -18 210 -83 279 -147 224 -206 241 -498 45 -758 -60 -80 -118 -133
-219 -198 -141 -92 -306 -162 -423 -181 l-41 -6 -48 189 c-26 105 -48 198 -48
207 -2 12 22 28 85 55 145 63 249 144 264 205 19 74 -31 110 -151 109 -97 0
-191 -27 -316 -90 -54 -26 -112 -47 -151 -53 -302 -49 -587 252 -565 596 18
262 203 503 502 656 75 37 232 106 247 107 3 0 41 -104 83 -231z m-1346 44
c58 -127 471 -1066 471 -1071 0 -4 -74 -81 -166 -172 -158 -158 -166 -164
-180 -145 -8 11 -148 231 -311 488 l-296 469 229 229 c126 126 232 229 235
229 3 0 11 -12 18 -27z m-144 -1583 c93 -23 237 -90 327 -151 106 -72 253
-223 328 -337 126 -189 175 -351 168 -542 -8 -194 -63 -314 -208 -460 -146
-146 -267 -201 -465 -208 -99 -3 -136 0 -209 17 -366 87 -711 424 -818 797
-18 64 -22 104 -22 209 0 120 2 137 30 216 89 252 316 440 579 483 58 9 211
-3 290 -24z m-1170 -1205 c27 -10 72 -32 100 -50 27 -18 257 -240 510 -494
l460 -461 -220 -220 -220 -220 -385 385 c-212 211 -398 389 -413 395 -100 37
-176 -22 -164 -127 5 -45 10 -51 396 -437 l391 -391 -220 -220 -220 -220 -617
618 -618 617 220 220 220 220 97 -97 97 -96 -9 39 c-47 200 60 423 247 518 95
48 244 57 348 21z m-1984 -450 c266 -94 345 -430 147 -628 -84 -84 -215 -128
-324 -108 -132 25 -231 100 -287 219 -29 60 -32 76 -32 157 0 76 5 99 27 147
15 32 39 73 55 93 36 46 118 103 174 120 60 19 186 19 240 0z m1179 -1200
l615 -615 -233 -232 -232 -233 -617 617 -618 618 230 230 c126 126 232 230
235 230 3 0 282 -277 620 -615z m-594 -736 l544 -544 -220 -220 -220 -220
-390 390 -389 389 -63 4 c-58 4 -66 2 -89 -22 -32 -32 -41 -69 -29 -121 7 -33
63 -93 397 -427 l388 -388 -233 -232 -232 -233 -382 381 c-211 210 -393 387
-405 393 -28 14 -95 14 -127 0 -37 -17 -59 -71 -51 -122 6 -39 35 -70 398
-435 l392 -392 -223 -223 -222 -222 -617 617 -618 618 230 230 c126 126 234
230 240 230 5 0 39 -30 76 -66 l66 -65 -5 78 c-14 244 160 473 397 524 29 6
91 9 139 7 l87 -3 -3 98 c-5 120 18 205 79 295 103 155 261 236 448 228 l93
-3 544 -544z m3236 -1076 c351 -351 638 -642 638 -648 0 -5 -109 -119 -242
-252 l-243 -243 -95 95 -95 95 0 -118 c0 -137 -17 -203 -74 -285 -103 -146
-308 -202 -541 -147 -112 27 -301 120 -411 204 -107 81 -249 230 -318 333
-332 497 -207 973 256 974 51 0 103 -3 115 -6 16 -5 -1 18 -52 69 l-75 76 245
245 c135 135 247 245 250 245 3 0 292 -287 642 -637z m-5697 -363 c106 -27
261 -103 360 -177 172 -128 330 -328 401 -507 93 -233 83 -476 -28 -664 -45
-77 -189 -219 -268 -265 -103 -60 -177 -80 -315 -85 -98 -3 -136 0 -209 17
-366 87 -711 423 -818 797 -18 64 -22 104 -22 209 0 120 2 137 30 216 89 252
316 440 579 483 58 9 211 -3 290 -24z m4035 -887 c128 -346 237 -639 242 -652
9 -24 18 -15 201 167 l192 192 195 -195 195 -195 -515 -515 c-322 -322 -517
-510 -521 -502 -4 6 -114 312 -245 679 l-239 668 -193 -193 c-191 -191 -193
-192 -210 -170 -9 11 -83 97 -164 191 -82 93 -148 174 -148 178 0 10 961 974
971 974 3 0 110 -282 239 -627z m-5787 76 c432 -87 885 -457 1107 -904 106
-214 143 -355 143 -555 1 -159 -20 -257 -83 -385 -38 -75 -58 -98 -357 -397
l-318 -318 -900 900 -900 900 325 323 c302 301 331 326 405 364 140 71 219 90
378 92 65 1 134 -6 200 -20z m4639 -1250 c130 -349 239 -638 241 -644 3 -5 91
75 196 180 l191 190 195 -195 195 -195 -503 -503 -503 -503 -243 633 c-134
348 -250 649 -258 668 l-14 34 -179 -179 -180 -180 -182 183 -183 182 485 485
c267 267 489 484 495 482 5 -2 117 -289 247 -638z m-1857 -13 c218 -99 294
-375 156 -567 -138 -193 -428 -213 -584 -39 -136 152 -138 360 -4 516 38 43
130 98 193 114 65 16 177 5 239 -24z m1103 -1139 l642 -642 -233 -233 -232
-232 -645 645 -645 645 230 230 c126 126 232 230 235 230 3 0 294 -289 648
-643z m-1648 183 c115 -28 267 -105 359 -182 366 -309 415 -857 110 -1225
l-48 -58 307 -308 307 -307 -260 -260 -260 -260 -925 925 -925 925 290 291
c313 313 377 365 520 420 115 45 184 57 320 58 88 1 143 -5 205 -19z"/>
<path d="M13719 10885 c-111 -60 -26 -282 184 -482 157 -149 305 -222 392
-193 133 44 64 262 -149 475 -167 167 -340 247 -427 200z"/>
<path d="M13874 6426 c-29 -22 -24 -92 14 -168 106 -216 407 -423 492 -338 24
24 25 62 5 121 -12 34 -52 80 -173 203 -94 94 -173 166 -197 177 -48 22 -114
25 -141 5z"/>
<path d="M8691 5856 c-114 -63 -31 -280 186 -487 154 -146 300 -218 388 -189
46 15 65 48 65 112 0 95 -80 229 -215 363 -166 165 -340 247 -424 201z"/>
<path d="M6995 4900 c-47 -7 -145 -47 -145 -60 0 -3 207 -212 460 -465 l459
-459 27 58 c53 116 43 247 -30 401 -53 111 -110 187 -218 291 -176 169 -385
257 -553 234z"/>
<path d="M9225 2837 c-49 -17 -111 -49 -145 -76 l-25 -20 243 -243 243 -243
25 30 c13 17 37 55 52 85 24 49 27 66 27 155 0 86 -3 106 -24 145 -32 62 -86
117 -146 148 -60 31 -185 40 -250 19z"/>
</g>
</svg>
