<svg width="48" height="48" viewBox="0 0 48 48" fill="none" xmlns="http://www.w3.org/2000/svg">
<path d="M25.5446 6.75V9.75C33.3378 9.75 39.6174 15.774 39.6174 23.25H42.7447C42.7447 14.1555 35.0234 6.75 25.5446 6.75ZM25.5446 12.75V15.75C29.8806 15.75 33.3628 19.0905 33.3628 23.25H36.4901C36.4901 17.4675 31.5724 12.75 25.5446 12.75ZM12.1065 12.891L11.0323 13.9215C4.35552 20.3265 4.35552 30.7665 11.0323 37.1715C17.7091 43.5765 28.5921 43.5765 35.2689 37.1715L36.3431 36.141L35.2689 35.0625L26.6688 26.8125C28.2684 26.343 29.4537 24.9435 29.4537 23.25C29.4537 21.1815 27.7008 19.5 25.5446 19.5C23.7792 19.5 22.3187 20.637 21.8309 22.1715L13.2308 13.9215L12.1065 12.891ZM12.352 17.3445L31.7006 35.9055C26.1982 40.095 18.3252 39.9495 13.2308 35.0625C8.13643 30.1755 7.98476 22.623 12.3505 17.343L12.352 17.3445Z" fill="white"/>
</svg>
