<svg width="49" height="48" viewBox="0 0 49 48" fill="none" xmlns="http://www.w3.org/2000/svg">
<path d="M25.1544 11L19.1544 20H23.1544V26L29.1544 17H25.1544V11Z" fill="white"/>
<path d="M25.1544 11L19.1544 20H23.1544V26L29.1544 17H25.1544V11Z" stroke="white"/>
<path d="M38.0644 18.273C37.761 20.8484 36.7258 23.2828 35.0814 25.288C34.1194 26.463 31.6744 29.82 31.1544 32H17.1544C16.6344 29.818 14.1864 26.461 13.2244 25.285C11.5809 23.2789 10.5467 20.8437 10.2444 18.268C9.94641 15.6978 10.395 13.0961 11.5364 10.774C12.6887 8.43423 14.4797 6.46844 16.7024 5.104C18.9445 3.72624 21.5249 2.99787 24.1564 3C26.7944 3 29.3784 3.73 31.6104 5.107C33.8326 6.47196 35.623 8.43809 36.7744 10.778C37.9154 13.1006 38.3633 15.7026 38.0644 18.273ZM29.7374 30H18.5704C18.1444 29.017 17.5754 28.032 17.0454 27.195C16.348 26.095 15.5895 25.0351 14.7734 24.02C13.3717 22.3096 12.4895 20.2333 12.2314 18.037C11.9774 15.8482 12.3593 13.6325 13.3314 11.655C14.3175 9.65413 15.85 7.97331 17.7514 6.807C19.6781 5.62347 21.8954 4.99792 24.1564 5C26.4264 5 28.6465 5.629 30.5614 6.81C32.4622 7.97656 33.9939 9.65736 34.9795 11.658C35.9511 13.636 36.3323 15.852 36.0774 18.041C35.8185 20.2368 34.9356 22.3124 33.5335 24.022C32.717 25.0365 31.9588 26.0966 31.2624 27.197C30.7324 28.034 30.1644 29.017 29.7384 30H29.7374Z" fill="white"/>
<path d="M38.0644 18.273C37.761 20.8484 36.7258 23.2828 35.0814 25.288C34.1194 26.463 31.6744 29.82 31.1544 32H17.1544C16.6344 29.818 14.1864 26.461 13.2244 25.285C11.5809 23.2789 10.5467 20.8437 10.2444 18.268C9.94641 15.6978 10.395 13.0961 11.5364 10.774C12.6887 8.43423 14.4797 6.46844 16.7024 5.104C18.9445 3.72624 21.5249 2.99787 24.1564 3C26.7944 3 29.3784 3.73 31.6104 5.107C33.8326 6.47196 35.623 8.43809 36.7744 10.778C37.9154 13.1006 38.3633 15.7026 38.0644 18.273ZM29.7374 30H18.5704C18.1444 29.017 17.5754 28.032 17.0454 27.195C16.348 26.095 15.5895 25.0351 14.7734 24.02C13.3717 22.3096 12.4895 20.2333 12.2314 18.037C11.9774 15.8482 12.3593 13.6325 13.3314 11.655C14.3175 9.65413 15.85 7.97331 17.7514 6.807C19.6781 5.62347 21.8954 4.99792 24.1564 5C26.4264 5 28.6465 5.629 30.5614 6.81C32.4622 7.97656 33.9939 9.65736 34.9795 11.658C35.9511 13.636 36.3323 15.852 36.0774 18.041C35.8185 20.2368 34.9356 22.3124 33.5335 24.022C32.717 25.0365 31.9588 26.0966 31.2624 27.197C30.7324 28.034 30.1644 29.017 29.7384 30H29.7374Z" stroke="white"/>
<path d="M17.1544 35C17.1544 34.7348 17.2598 34.4804 17.4473 34.2929C17.6348 34.1054 17.8892 34 18.1544 34H30.1544C30.4196 34 30.674 34.1054 30.8615 34.2929C31.0491 34.4804 31.1544 34.7348 31.1544 35C31.1544 35.2652 31.0491 35.5196 30.8615 35.7071C30.674 35.8946 30.4196 36 30.1544 36H18.1544C17.8892 36 17.6348 35.8946 17.4473 35.7071C17.2598 35.5196 17.1544 35.2652 17.1544 35Z" fill="white"/>
<path d="M17.1544 35C17.1544 34.7348 17.2598 34.4804 17.4473 34.2929C17.6348 34.1054 17.8892 34 18.1544 34H30.1544C30.4196 34 30.674 34.1054 30.8615 34.2929C31.0491 34.4804 31.1544 34.7348 31.1544 35C31.1544 35.2652 31.0491 35.5196 30.8615 35.7071C30.674 35.8946 30.4196 36 30.1544 36H18.1544C17.8892 36 17.6348 35.8946 17.4473 35.7071C17.2598 35.5196 17.1544 35.2652 17.1544 35Z" stroke="white"/>
<path d="M17.1544 38H31.1544V41C31.1544 41.5304 30.9437 42.0391 30.5686 42.4142C30.1936 42.7893 29.6849 43 29.1544 43H19.1544C18.624 43 18.1153 42.7893 17.7402 42.4142C17.3651 42.0391 17.1544 41.5304 17.1544 41V38ZM19.1544 40H29.1544V41H19.1544V40Z" fill="white"/>
<path d="M17.1544 38H31.1544V41C31.1544 41.5304 30.9437 42.0391 30.5686 42.4142C30.1936 42.7893 29.6849 43 29.1544 43H19.1544C18.624 43 18.1153 42.7893 17.7402 42.4142C17.3651 42.0391 17.1544 41.5304 17.1544 41V38ZM19.1544 40H29.1544V41H19.1544V40Z" stroke="white"/>
</svg>
