<svg width="40" height="47" viewBox="0 0 40 47" fill="none" xmlns="http://www.w3.org/2000/svg">
<path d="M16.3927 11.9305C7.76177 22.4646 12.7965 28.39 16.3927 30.0359C23.9848 31.6819 30.2283 27.7316 26.7819 20.1602C23.3355 12.5888 21.5873 9.62613 19.1898 6.33423C21.9759 22.0732 21.5904 21.8085 19.218 20.1796L19.1898 20.1602C17.2718 18.8435 16.5259 14.1251 16.3927 11.9305Z" fill="white"/>
<path fill-rule="evenodd" clip-rule="evenodd" d="M20.0415 35.4735C29.6209 35.4735 37.5713 28.0526 37.5713 18.687C37.5713 9.32131 29.6209 1.90037 20.0415 1.90037C10.4622 1.90037 2.51177 9.32131 2.51177 18.687C2.51177 28.0526 10.4622 35.4735 20.0415 35.4735ZM20.0415 37.3739C30.8847 37.3739 39.6749 29.0075 39.6749 18.687C39.6749 8.36643 30.8847 0 20.0415 0C9.19835 0 0.408203 8.36643 0.408203 18.687C0.408203 29.0075 9.19835 37.3739 20.0415 37.3739Z" fill="white"/>
<path fill-rule="evenodd" clip-rule="evenodd" d="M20.3929 44.6585V37.3738H22.4965V44.6585H32.6638V46.5589H10.9269V44.6585H20.3929Z" fill="white"/>
</svg>
