<?xml version="1.0" standalone="no"?>
<!DOCTYPE svg PUBLIC "-//W3C//DTD SVG 20010904//EN"
 "http://www.w3.org/TR/2001/REC-SVG-20010904/DTD/svg10.dtd">
<svg version="1.0" xmlns="http://www.w3.org/2000/svg"
 width="961.000000pt" height="1024.000000pt" viewBox="0 0 961.000000 1024.000000"
 preserveAspectRatio="xMidYMid meet">

<g transform="translate(0.000000,1024.000000) scale(0.100000,-0.100000)"
fill="#000000" stroke="none">
<path d="M5301 4933 c-101 -103 -501 -507 -890 -898 -585 -587 -2704 -2722
-3745 -3772 l-260 -263 69 0 c143 0 134 -5 1095 522 206 113 544 298 750 410
500 274 1022 559 1485 813 209 114 524 286 700 383 349 191 803 439 1210 662
143 78 503 275 800 437 297 162 543 298 547 302 4 3 -349 363 -785 799 l-793
793 -183 -188z"/>
</g>
</svg>
