<svg width="47" height="43" viewBox="0 0 47 43" fill="none" xmlns="http://www.w3.org/2000/svg">
<path d="M21.0625 23.2917V22.7917H20.5625H16.1666V18.4167H20.5625H21.0625V17.9167V13.9375H25.9375V17.9167V18.4167H26.4375H30.8333V22.7917H26.4375H25.9375V23.2917V27.2709H21.0625V23.2917ZM23.3564 36.169L23.5 36.212L23.6435 36.169C30.6105 34.0813 35.75 27.258 35.75 19.8696V11.4488V11.0917L35.4122 10.9759L23.6622 6.9446L23.5 6.88893L23.3377 6.9446L11.5877 10.9759L11.25 11.0917V11.4488V19.8696C11.25 27.2762 16.3897 34.0813 23.3564 36.169ZM8.33331 19.8696V9.31544L23.5 4.11198L38.6666 9.31544V19.8696C38.6666 28.646 32.206 36.8507 23.5 38.9034C14.794 36.8507 8.33331 28.646 8.33331 19.8696Z" fill="white" stroke="#7F12FB"/>
</svg>
