<svg width="24" height="24" viewBox="0 0 24 24" fill="none" xmlns="http://www.w3.org/2000/svg">
<path d="M12 0.333984C5.58333 0.333984 0.333332 5.58398 0.333332 12.0007C0.333332 18.4173 5.58333 23.6673 12 23.6673C18.4167 23.6673 23.6667 18.4173 23.6667 12.0007C23.6667 5.58398 18.4167 0.333984 12 0.333984ZM16.1417 16.434L11.3817 13.5057C11.0317 13.2957 10.8217 12.9223 10.8217 12.514V7.04232C10.8333 6.56398 11.23 6.16732 11.7083 6.16732C12.1867 6.16732 12.5833 6.56398 12.5833 7.04232V12.234L17.0633 14.929C17.4833 15.1857 17.6233 15.734 17.3667 16.154C17.11 16.5623 16.5617 16.6907 16.1417 16.434Z" fill="#323F4B"/>
</svg>
