<svg width="51" height="51" viewBox="0 0 51 51" fill="none" xmlns="http://www.w3.org/2000/svg">
<path d="M25.7336 34.2977C15.7609 30.5106 17.0501 19.5698 17.0501 19.5698L25.7336 14.8358L35.2295 19.5698C35.2295 28.8274 28.3306 33.2458 25.7336 34.2977Z" stroke="white" stroke-width="2"/>
<path d="M22.5034 24.1366L25.1698 26.7434L29.5818 22.45" stroke="white" stroke-width="2" stroke-linecap="round"/>
<path d="M43.8962 20.6894L42.9256 20.9082L42.9256 20.9082L43.8962 20.6894ZM36.5499 9.58149L35.982 10.403L36.5499 9.58149ZM23.7896 6.49159L23.93 7.48658L23.7896 6.49159ZM11.9875 12.9627L23.4268 11.8578L16.6995 2.414L11.9875 12.9627ZM43.0456 34.733C45.3025 30.321 45.9532 25.2513 44.8668 20.4706L42.9256 20.9082C43.9048 25.217 43.3209 29.8033 41.2745 33.8038L43.0456 34.733ZM44.8668 20.4706C43.78 15.6886 41.0284 11.5215 37.1178 8.76003L35.982 10.403C39.4744 12.869 41.9468 16.6008 42.9256 20.9082L44.8668 20.4706ZM37.1178 8.76003C33.2067 5.9983 28.4161 4.8404 23.6492 5.49661L23.93 7.48658C28.2068 6.89784 32.49 7.93717 35.982 10.403L37.1178 8.76003ZM23.6492 5.49661C22.0043 5.72304 20.4016 6.16003 18.8751 6.78821L19.6369 8.64839C21.0121 8.0825 22.4534 7.68986 23.93 7.48658L23.6492 5.49661Z" fill="white"/>
<path d="M40.0022 36.484L35.2056 47.032L28.5762 37.539L40.0022 36.484ZM28.0895 42.9604L28.2273 43.9571L28.2273 43.9571L28.0895 42.9604ZM15.2243 39.9618L15.783 39.1305L15.2243 39.9618ZM7.83102 28.9858L8.79887 28.7589L7.83102 28.9858ZM33.0779 42.6373C31.5271 43.276 29.8985 43.7225 28.2273 43.9571L27.9517 41.9637C29.4571 41.7524 30.9261 41.3499 32.3268 40.773L33.0779 42.6373ZM28.2273 43.9571C23.4273 44.6308 18.6038 43.5098 14.6655 40.7931L15.783 39.1305C19.3037 41.5592 23.6287 42.5705 27.9517 41.9637L28.2273 43.9571ZM14.6655 40.7931C10.7269 38.0762 7.95414 33.9565 6.86318 29.2127L8.79887 28.7589C9.77805 33.0167 12.2626 36.7021 15.783 39.1305L14.6655 40.7931ZM6.86318 29.2127C5.77252 24.4701 6.43783 19.433 8.72249 15.0433L10.4811 15.9834C8.41327 19.9566 7.81939 24.4998 8.79887 28.7589L6.86318 29.2127Z" fill="white"/>
</svg>
