<svg width="47" height="47" viewBox="0 0 47 47" fill="none" xmlns="http://www.w3.org/2000/svg">
<path d="M4.48682 7H3.48682C2.38225 7 1.48682 7.89543 1.48682 9V39.5C1.48682 40.6046 2.38225 41.5 3.48682 41.5H43.4868C44.5914 41.5 45.4868 40.6046 45.4868 39.5V9C45.4868 7.89543 44.5914 7 43.4868 7H16.4868" stroke="white" stroke-width="2"/>
<rect x="5.48682" y="1" width="10" height="36" rx="5" stroke="white" stroke-width="2"/>
<rect x="24.4868" y="11" width="18" height="5" rx="1" stroke="white" stroke-width="2"/>
<rect x="24.4868" y="20" width="18" height="17" rx="1" stroke="white" stroke-width="2"/>
<path d="M30.4868 19.6785V37.3213" stroke="white" stroke-width="2"/>
<path d="M36.9868 19.6785V37.3213" stroke="white" stroke-width="2"/>
<path d="M24.4868 25.7856H42.9868" stroke="white" stroke-width="2"/>
<path d="M24.4868 31.2144H42.9868" stroke="white" stroke-width="2"/>
<path d="M10.9868 37C10.9868 37.4637 10.9868 38.1568 10.9868 38.9996C10.9868 42.8655 14.1208 46 17.9868 46H18.3434C20.3428 46 22.2468 45.145 23.5752 43.6505L25.4868 41.5" stroke="white" stroke-width="2"/>
</svg>
