<svg width="34" height="43" viewBox="0 0 34 43" fill="none" xmlns="http://www.w3.org/2000/svg">
<path d="M1.50061 41.2382L1.50617 27.444C1.50963 18.8872 8.4491 11.9533 17.0059 11.9568C25.5627 11.9602 32.4966 18.8997 32.4931 27.4565L32.4876 41.2507L1.50061 41.2382Z" stroke="white" stroke-width="3"/>
<path d="M13.3181 10.7396C13.3181 10.7396 0.856222 -1.15621 8.78653 2.80934C16.7168 6.77488 16.7168 6.77488 25.78 2.80934C34.8432 -1.15621 21.8149 10.7396 21.8149 10.7396" stroke="white" stroke-width="3"/>
<path d="M18.9282 35.6636C18.8086 35.6636 18.6929 35.6408 18.5811 35.5952C18.4687 35.5495 18.3677 35.4811 18.278 35.3898L12.8743 29.6632C12.7696 29.5567 12.6838 29.4122 12.6169 29.2297C12.5493 29.0472 12.5155 28.8798 12.5155 28.7277C12.5155 28.3779 12.6387 28.0774 12.885 27.8261C13.132 27.5754 13.4274 27.4501 13.7712 27.4501H15.6546C16.4468 27.4501 17.1309 27.1876 17.7067 26.6625C18.2819 26.1381 18.6293 25.488 18.7488 24.7123H12.5155C12.2614 24.7123 12.0483 24.6246 11.8761 24.4494C11.7045 24.2748 11.6187 24.0582 11.6187 23.7996C11.6187 23.5411 11.7045 23.3242 11.8761 23.1489C12.0483 22.9743 12.2614 22.887 12.5155 22.887H18.4798C18.2257 22.3547 17.8484 21.9172 17.3479 21.5747C16.8469 21.2328 16.2824 21.0618 15.6546 21.0618H12.5155C12.2614 21.0618 12.0483 20.9742 11.8761 20.799C11.7045 20.6244 11.6187 20.4078 11.6187 20.1492C11.6187 19.8906 11.7045 19.6737 11.8761 19.4985C12.0483 19.3239 12.2614 19.2366 12.5155 19.2366H21.4843C21.7384 19.2366 21.9513 19.3239 22.1229 19.4985C22.2951 19.6737 22.3812 19.8906 22.3812 20.1492C22.3812 20.4078 22.2951 20.6244 22.1229 20.799C21.9513 20.9742 21.7384 21.0618 21.4843 21.0618H19.4663C19.6756 21.3204 19.8625 21.6018 20.0269 21.906C20.1913 22.2102 20.3184 22.5372 20.4081 22.887H21.4843C21.7384 22.887 21.9513 22.9743 22.1229 23.1489C22.2951 23.3242 22.3812 23.5411 22.3812 23.7996C22.3812 24.0582 22.2951 24.2748 22.1229 24.4494C21.9513 24.6246 21.7384 24.7123 21.4843 24.7123H20.565C20.4454 26.0051 19.9223 27.0887 18.9955 27.963C18.0687 28.8379 16.9551 29.2753 15.6546 29.2753H15.0044L19.5784 34.1122C19.8475 34.4012 19.9034 34.7318 19.7462 35.1042C19.5895 35.4771 19.3169 35.6636 18.9282 35.6636Z" fill="white"/>
</svg>
