<svg width="25" height="39" viewBox="0 0 25 39" fill="none" xmlns="http://www.w3.org/2000/svg">
<path d="M22.0278 0.445312H2.97222C2.25024 0.445313 1.55784 0.732117 1.04732 1.24263C0.536805 1.75315 0.25 2.44556 0.25 3.16754V35.8342C0.25 36.5562 0.536805 37.2486 1.04732 37.7591C1.55784 38.2696 2.25024 38.5564 2.97222 38.5564H22.0278C22.7498 38.5564 23.4422 38.2696 23.9527 37.7591C24.4632 37.2486 24.75 36.5562 24.75 35.8342V3.16754C24.75 2.44556 24.4632 1.75315 23.9527 1.24263C23.4422 0.732117 22.7498 0.445313 22.0278 0.445312ZM13.8611 35.8342H11.1389V33.112H13.8611V35.8342ZM2.97222 30.3898V3.16754H22.0278V30.3898H2.97222Z" fill="black"/>
</svg>
