<svg width="49" height="49" viewBox="0 0 49 49" fill="none" xmlns="http://www.w3.org/2000/svg">
<path d="M34.0278 5.44434H14.9722C14.2502 5.44434 13.5578 5.73114 13.0473 6.24166C12.5368 6.75217 12.25 7.44458 12.25 8.16656V40.8332C12.25 41.5552 12.5368 42.2476 13.0473 42.7581C13.5578 43.2687 14.2502 43.5555 14.9722 43.5555H34.0278C34.7498 43.5555 35.4422 43.2687 35.9527 42.7581C36.4632 42.2476 36.75 41.5552 36.75 40.8332V8.16656C36.75 7.44458 36.4632 6.75217 35.9527 6.24166C35.4422 5.73114 34.7498 5.44434 34.0278 5.44434V5.44434ZM25.8611 40.8332H23.1389V38.111H25.8611V40.8332ZM14.9722 35.3888V8.16656H34.0278V35.3888H14.9722Z" fill="white"/>
</svg>
