<svg width="30" height="33" viewBox="0 0 30 33" fill="none" xmlns="http://www.w3.org/2000/svg">
<path d="M16.6872 23.4636H13.8263C13.0396 23.4636 12.3959 22.6803 12.3959 21.7229H2.39712V28.6858C2.39712 30.6006 3.68451 32.1673 5.25799 32.1673H25.2698C26.8433 32.1673 28.1306 30.6006 28.1306 28.6858V21.7229H18.1176C18.1176 22.6803 17.4739 23.4636 16.6872 23.4636ZM26.7002 7.79695H20.9785C20.9785 3.94991 18.418 0.833984 15.2567 0.833984C12.0955 0.833984 9.53499 3.94991 9.53499 7.79695H3.81325C2.23977 7.79695 0.952377 9.36361 0.952377 11.2784V16.5006C0.952377 18.4329 2.22546 19.9821 3.81325 19.9821H12.3959V18.2414C12.3959 17.284 13.0396 16.5006 13.8263 16.5006H16.6872C17.4739 16.5006 18.1176 17.284 18.1176 18.2414V19.9821H26.7002C28.2737 19.9821 29.5611 18.4155 29.5611 16.5006V11.2784C29.5611 9.36361 28.2737 7.79695 26.7002 7.79695ZM12.3959 7.79695C12.3959 5.88213 13.6832 4.31547 15.2567 4.31547C16.8302 4.31547 18.1176 5.88213 18.1176 7.79695H12.3816H12.3959Z" fill="#323F4B"/>
</svg>
