<svg width="44" height="36" viewBox="0 0 44 36" fill="none" xmlns="http://www.w3.org/2000/svg">
<path d="M29.9375 13.5539L35.2993 9.23985L35.5445 12.7732C35.5561 12.9386 35.6331 13.1019 35.7585 13.2273C35.8839 13.3526 36.0475 13.4297 36.2133 13.4416C36.379 13.4535 36.5334 13.3991 36.6424 13.2906C36.7514 13.182 36.8061 13.0281 36.7945 12.8627L36.4591 7.99862C36.4536 7.96216 36.4456 7.92577 36.4349 7.88975C36.4132 7.86437 36.4003 7.84915 36.4103 7.79831C36.3812 7.72362 36.3391 7.65304 36.2862 7.59012C36.2324 7.52789 36.1689 7.47457 36.0988 7.43286C36.0772 7.40749 36.0642 7.39226 36.0109 7.39234C35.9765 7.37544 35.9412 7.36093 35.9053 7.34895L31.049 6.12233C30.9577 6.09923 30.8652 6.09599 30.7781 6.11281C30.691 6.12964 30.6115 6.16613 30.5452 6.21969C30.4394 6.30445 30.3722 6.42812 30.3554 6.56923C30.3459 6.64867 30.3527 6.73145 30.3753 6.81282C30.3979 6.89419 30.4359 6.97255 30.4871 7.04342C30.5383 7.11429 30.6017 7.17628 30.6737 7.22583C30.7457 7.27538 30.8248 7.31152 30.9066 7.33218L34.434 8.22473L29.0722 12.5388C28.9523 12.6353 28.8829 12.7813 28.8793 12.9447C28.8756 13.1081 28.938 13.2755 29.0528 13.4101C29.1675 13.5447 29.3252 13.6355 29.4911 13.6625C29.657 13.6894 29.8176 13.6504 29.9375 13.5539Z" fill="#5B2D8F"/>
<path d="M10.5 26.5L2 32.5" stroke="black" stroke-width="3" stroke-linecap="round"/>
<path d="M22.2677 26.33C22.1651 26.33 22.0659 26.3115 21.97 26.2745C21.8737 26.2374 21.787 26.1819 21.7101 26.1078L17.0767 21.4608C16.9869 21.3744 16.9134 21.2572 16.8559 21.1091C16.798 20.961 16.769 20.8252 16.769 20.7018C16.769 20.4179 16.8747 20.174 17.0859 19.9701C17.2976 19.7667 17.5509 19.665 17.8457 19.665H19.4607C20.14 19.665 20.7265 19.452 21.2202 19.0259C21.7134 18.6003 22.0113 18.0728 22.1139 17.4433H16.769C16.5511 17.4433 16.3684 17.3722 16.2207 17.2301C16.0736 17.0884 16 16.9126 16 16.7028C16 16.493 16.0736 16.3169 16.2207 16.1748C16.3684 16.0331 16.5511 15.9622 16.769 15.9622H21.8831C21.6652 15.5302 21.3417 15.1753 20.9126 14.8973C20.483 14.6198 19.999 14.4811 19.4607 14.4811H16.769C16.5511 14.4811 16.3684 14.41 16.2207 14.2678C16.0736 14.1261 16 13.9504 16 13.7406C16 13.5307 16.0736 13.3547 16.2207 13.2125C16.3684 13.0708 16.5511 13 16.769 13H24.4594C24.6773 13 24.8598 13.0708 25.007 13.2125C25.1546 13.3547 25.2285 13.5307 25.2285 13.7406C25.2285 13.9504 25.1546 14.1261 25.007 14.2678C24.8598 14.41 24.6773 14.4811 24.4594 14.4811H22.7291C22.9085 14.6909 23.0687 14.9193 23.2097 15.1661C23.3507 15.413 23.4597 15.6783 23.5366 15.9622H24.4594C24.6773 15.9622 24.8598 16.0331 25.007 16.1748C25.1546 16.3169 25.2285 16.493 25.2285 16.7028C25.2285 16.9126 25.1546 17.0884 25.007 17.2301C24.8598 17.3722 24.6773 17.4433 24.4594 17.4433H23.6712C23.5686 18.4925 23.12 19.3717 22.3253 20.0812C21.5307 20.7911 20.5758 21.1461 19.4607 21.1461H18.9031L22.8252 25.0711C23.0559 25.3056 23.1039 25.5739 22.969 25.876C22.8347 26.1787 22.6009 26.33 22.2677 26.33Z" fill="#5B2D8F"/>
<path d="M27.4378 8.81993C25.1173 7.29581 22.3401 6.62343 19.5795 6.91737C16.8188 7.21132 14.2455 8.45338 12.2979 10.4319C10.3504 12.4105 9.14913 15.0031 8.89884 17.7681C8.64856 20.5331 9.36473 23.2993 10.9253 25.5954C12.4859 27.8915 14.7944 29.5755 17.4574 30.3604C20.1204 31.1453 22.9732 30.9825 25.5296 29.8999C28.0861 28.8172 30.1881 26.8816 31.4774 24.4229C32.7667 21.9642 33.1637 19.1345 32.6005 16.4159" stroke="black" stroke-width="2"/>
</svg>
