<?xml version="1.0" standalone="no"?>
<!DOCTYPE svg PUBLIC "-//W3C//DTD SVG 20010904//EN"
 "http://www.w3.org/TR/2001/REC-SVG-20010904/DTD/svg10.dtd">
<svg version="1.0" xmlns="http://www.w3.org/2000/svg"
 width="25.000000pt" height="28.000000pt" viewBox="0 0 25.000000 28.000000"
 preserveAspectRatio="xMidYMid meet">

<g transform="translate(0.000000,28.000000) scale(0.100000,-0.100000)"
fill="#000000" stroke="none">
<path d="M71 252 c-15 -12 -24 -34 -30 -72 -4 -30 -15 -67 -24 -81 -9 -14 -14
-29 -10 -32 8 -9 233 -9 233 0 0 19 -37 83 -48 83 -26 0 -72 57 -72 89 0 36
-17 40 -49 13z"/>
<path d="M90 31 c0 -16 20 -23 46 -17 36 9 29 26 -11 26 -19 0 -35 -4 -35 -9z"/>
</g>
</svg>
