<svg width="24" height="24" viewBox="0 0 24 24" fill="none" xmlns="http://www.w3.org/2000/svg">
<path d="M22.9783 11.1767L12.4783 0.676667C12.0583 0.256667 11.475 0 10.8333 0H2.66668C1.38334 0 0.333344 1.05 0.333344 2.33333V10.5C0.333344 11.1417 0.59001 11.725 1.02168 12.1567L11.5217 22.6567C11.9417 23.0767 12.525 23.3333 13.1667 23.3333C13.8083 23.3333 14.3917 23.0767 14.8117 22.645L22.9783 14.4783C23.41 14.0583 23.6667 13.475 23.6667 12.8333C23.6667 12.1917 23.3983 11.5967 22.9783 11.1767ZM4.41668 5.83333C3.44834 5.83333 2.66668 5.05167 2.66668 4.08333C2.66668 3.115 3.44834 2.33333 4.41668 2.33333C5.38501 2.33333 6.16668 3.115 6.16668 4.08333C6.16668 5.05167 5.38501 5.83333 4.41668 5.83333Z" fill="#323F4B"/>
</svg>
