<svg width="52" height="52" viewBox="0 0 52 52" fill="none" xmlns="http://www.w3.org/2000/svg">
<path fill-rule="evenodd" clip-rule="evenodd" d="M28.17 1.83333C25.1785 1.83333 22.7534 4.25846 22.7534 7.25V9.75H21.92V7.25C21.92 3.79822 24.7183 1 28.17 1H44.8367C48.2885 1 51.0867 3.79822 51.0867 7.25V44.75C51.0867 48.2018 48.2885 51 44.8367 51H28.17C24.7183 51 21.92 48.2018 21.92 44.75V34.7596H22.7534V44.75C22.7534 47.7415 25.1785 50.1667 28.17 50.1667H44.8367C47.8283 50.1667 50.2534 47.7415 50.2534 44.75V7.25C50.2534 4.25846 47.8283 1.83333 44.8367 1.83333H28.17Z" fill="white" stroke="white"/>
<path fill-rule="evenodd" clip-rule="evenodd" d="M16.7371 11.5406C16.3205 12.0587 16.0869 12.9022 16.0869 14.3329V31.0371H20.4807C22.4263 31.0371 24.0036 32.6143 24.0036 34.56V34.7495C24.0036 36.1302 25.1229 37.2495 26.5036 37.2495C27.8843 37.2495 29.0036 36.1302 29.0036 34.7495V10.5992C26.6772 10.6812 24.6986 10.6322 23.0423 10.5892L22.9891 10.5879C21.2441 10.5426 19.8905 10.5075 18.8445 10.632C17.7923 10.7573 17.1437 11.035 16.7371 11.5406ZM29.4202 10.1662L29.4029 9.7499C26.9182 9.85343 24.8211 9.80175 23.0639 9.75619L22.9525 9.7533C21.2575 9.70928 19.8527 9.6728 18.746 9.80454C17.6107 9.9397 16.6968 10.261 16.0877 11.0184C15.4887 11.7633 15.2536 12.8468 15.2536 14.3329V31.0371H11.0869C7.63513 31.0371 4.83691 33.8353 4.83691 37.2871V43.1204H1.50358V43.5371H1.08691C1.08691 45.8383 2.95239 47.7038 5.25358 47.7038H17.7536C19.1343 47.7038 20.2536 46.5845 20.2536 45.2038V31.8704H20.4807C21.9661 31.8704 23.1702 33.0746 23.1702 34.56V34.7495C23.1702 36.5905 24.6626 38.0828 26.5036 38.0828C28.3445 38.0828 29.8369 36.5905 29.8369 34.7495V18.9162H35.2536V15.5829C35.2536 12.3613 32.6419 9.74958 29.4202 9.74954L29.4202 10.1662ZM29.8369 10.6C32.4034 10.8118 34.4202 12.9618 34.4202 15.5829V18.0829H29.8369V10.6ZM19.4202 31.8704H11.0869C8.09537 31.8704 5.67025 34.2955 5.67025 37.2871V43.1204H16.0869V45.2038C16.0869 46.1242 16.8331 46.8704 17.7536 46.8704C18.674 46.8704 19.4202 46.1242 19.4202 45.2038V31.8704ZM15.8902 46.8704C15.4943 46.4281 15.2536 45.844 15.2536 45.2038V43.9538H1.94604C2.15108 45.598 3.55374 46.8704 5.25358 46.8704H15.8902Z" fill="white" stroke="white"/>
<path fill-rule="evenodd" clip-rule="evenodd" d="M23.5869 35.1666H20.2535V34.3333H23.5869V35.1666Z" fill="white" stroke="white"/>
<path fill-rule="evenodd" clip-rule="evenodd" d="M50.6704 8.08333H22.337V7.25H50.6704V8.08333Z" fill="white" stroke="white"/>
<path fill-rule="evenodd" clip-rule="evenodd" d="M51.087 45.1666H22.337V44.3333H51.087V45.1666Z" fill="white" stroke="white"/>
<mask id="path-6-inside-1_559_5908" fill="white">
<path fill-rule="evenodd" clip-rule="evenodd" d="M36.9204 48.0834C37.1505 48.0834 37.3371 47.8969 37.3371 47.6667C37.3371 47.4366 37.1505 47.2501 36.9204 47.2501C36.6903 47.2501 36.5037 47.4366 36.5037 47.6667C36.5037 47.8969 36.6903 48.0834 36.9204 48.0834ZM36.9204 48.9167C37.6108 48.9167 38.1704 48.3571 38.1704 47.6667C38.1704 46.9764 37.6108 46.4167 36.9204 46.4167C36.2301 46.4167 35.6704 46.9764 35.6704 47.6667C35.6704 48.3571 36.2301 48.9167 36.9204 48.9167Z"/>
</mask>
<path fill-rule="evenodd" clip-rule="evenodd" d="M36.9204 48.0834C37.1505 48.0834 37.3371 47.8969 37.3371 47.6667C37.3371 47.4366 37.1505 47.2501 36.9204 47.2501C36.6903 47.2501 36.5037 47.4366 36.5037 47.6667C36.5037 47.8969 36.6903 48.0834 36.9204 48.0834ZM36.9204 48.9167C37.6108 48.9167 38.1704 48.3571 38.1704 47.6667C38.1704 46.9764 37.6108 46.4167 36.9204 46.4167C36.2301 46.4167 35.6704 46.9764 35.6704 47.6667C35.6704 48.3571 36.2301 48.9167 36.9204 48.9167Z" fill="white"/>
<path d="M36.3371 47.6667C36.3371 47.3446 36.5982 47.0834 36.9204 47.0834V49.0834C37.7028 49.0834 38.3371 48.4492 38.3371 47.6667H36.3371ZM36.9204 48.2501C36.5982 48.2501 36.3371 47.9889 36.3371 47.6667H38.3371C38.3371 46.8843 37.7028 46.2501 36.9204 46.2501V48.2501ZM37.5037 47.6667C37.5037 47.9889 37.2426 48.2501 36.9204 48.2501V46.2501C36.138 46.2501 35.5037 46.8843 35.5037 47.6667H37.5037ZM36.9204 47.0834C37.2426 47.0834 37.5037 47.3446 37.5037 47.6667H35.5037C35.5037 48.4492 36.138 49.0834 36.9204 49.0834V47.0834ZM37.1704 47.6667C37.1704 47.8048 37.0585 47.9167 36.9204 47.9167V49.9167C38.1631 49.9167 39.1704 48.9094 39.1704 47.6667H37.1704ZM36.9204 47.4167C37.0585 47.4167 37.1704 47.5287 37.1704 47.6667H39.1704C39.1704 46.4241 38.1631 45.4167 36.9204 45.4167V47.4167ZM36.6704 47.6667C36.6704 47.5287 36.7823 47.4167 36.9204 47.4167V45.4167C35.6778 45.4167 34.6704 46.4241 34.6704 47.6667H36.6704ZM36.9204 47.9167C36.7823 47.9167 36.6704 47.8048 36.6704 47.6667H34.6704C34.6704 48.9094 35.6778 49.9167 36.9204 49.9167V47.9167Z" fill="white" mask="url(#path-6-inside-1_559_5908)"/>
<path fill-rule="evenodd" clip-rule="evenodd" d="M17.7538 15.1664C17.7538 14.9363 17.9403 14.7498 18.1705 14.7498H26.0871C26.3172 14.7498 26.5038 14.9363 26.5038 15.1664C26.5038 15.3965 26.3172 15.5831 26.0871 15.5831H18.1705C17.9403 15.5831 17.7538 15.3965 17.7538 15.1664Z" fill="white" stroke="white" stroke-linecap="round"/>
<path fill-rule="evenodd" clip-rule="evenodd" d="M17.7538 18.0834C17.7538 17.8533 17.9403 17.6667 18.1705 17.6667H26.0871C26.3172 17.6667 26.5038 17.8533 26.5038 18.0834C26.5038 18.3135 26.3172 18.5001 26.0871 18.5001H18.1705C17.9403 18.5001 17.7538 18.3135 17.7538 18.0834Z" fill="white" stroke="white" stroke-linecap="round"/>
<path fill-rule="evenodd" clip-rule="evenodd" d="M17.7538 21.4164C17.7538 21.1863 17.9403 20.9998 18.1705 20.9998H22.7538C22.9839 20.9998 23.1705 21.1863 23.1705 21.4164C23.1705 21.6465 22.9839 21.8331 22.7538 21.8331H18.1705C17.9403 21.8331 17.7538 21.6465 17.7538 21.4164Z" fill="white" stroke="white" stroke-linecap="round"/>
<path fill-rule="evenodd" clip-rule="evenodd" d="M7.41479 36.0427C7.41479 35.826 7.61263 35.7168 7.76636 35.7168H11.4903C11.644 35.7168 11.8419 35.826 11.8419 36.0427C11.8419 36.2593 11.644 36.3685 11.4903 36.3685H7.76636C7.61263 36.3685 7.41479 36.2593 7.41479 36.0427Z" fill="white" stroke="white" stroke-linecap="round"/>
<path fill-rule="evenodd" clip-rule="evenodd" d="M7.12842 34.8676C7.12842 34.651 7.32626 34.5417 7.47998 34.5417H11.7768C11.9306 34.5417 12.1284 34.651 12.1284 34.8676C12.1284 35.0842 11.9306 35.1935 11.7768 35.1935H10.3415C10.5478 35.4998 10.6148 35.8629 10.5365 36.21C10.4222 36.7162 10.0079 37.1533 9.34963 37.3275L9.29386 37.3423C9.66613 37.5796 10.0906 37.8472 10.4934 38.0955C10.8185 38.296 11.1278 38.4828 11.3833 38.6307C11.6463 38.783 11.8319 38.8819 11.92 38.918C12.0812 38.9842 12.1997 39.185 12.0828 39.3768C11.9849 39.5375 11.7818 39.5745 11.6337 39.5137C11.4926 39.4558 11.2653 39.3315 11.0094 39.1833C10.7459 39.0308 10.4303 38.8401 10.1026 38.6381C9.44691 38.2338 8.73563 37.7799 8.28056 37.4851L7.67493 37.0928L9.15507 36.701C9.63227 36.5747 9.84882 36.2551 9.8642 35.9611C9.87916 35.6754 9.70741 35.3549 9.27727 35.1935H7.47998C7.32626 35.1935 7.12842 35.0842 7.12842 34.8676Z" fill="white"/>
<path d="M11.6337 39.5137C11.7818 39.5745 11.9849 39.5375 12.0828 39.3768C12.1997 39.185 12.0812 38.9842 11.92 38.918C11.8319 38.8819 11.6463 38.783 11.3833 38.6307C11.1278 38.4828 10.8185 38.296 10.4934 38.0955C10.0906 37.8472 9.66613 37.5796 9.29386 37.3423L9.34963 37.3275C10.0079 37.1533 10.4222 36.7162 10.5365 36.21C10.6148 35.8629 10.5478 35.4998 10.3415 35.1935H11.7768C11.9306 35.1935 12.1284 35.0842 12.1284 34.8676C12.1284 34.651 11.9306 34.5417 11.7768 34.5417H7.47998C7.32626 34.5417 7.12842 34.651 7.12842 34.8676C7.12842 35.0842 7.32626 35.1935 7.47998 35.1935H9.27727C9.70741 35.3549 9.87916 35.6754 9.8642 35.9611C9.84882 36.2551 9.63227 36.5747 9.15507 36.701L7.67493 37.0928L8.28056 37.4851C8.73563 37.7799 9.44691 38.2338 10.1026 38.6381C10.4303 38.8401 10.7459 39.0308 11.0094 39.1833C11.2653 39.3315 11.4926 39.4558 11.6337 39.5137ZM11.6337 39.5137L11.7128 39.321" stroke="white" stroke-linecap="round"/>
<path fill-rule="evenodd" clip-rule="evenodd" d="M13.2484 36.0427C13.2484 35.826 13.4463 35.7168 13.6 35.7168H17.3239C17.4776 35.7168 17.6755 35.826 17.6755 36.0427C17.6755 36.2593 17.4776 36.3685 17.3239 36.3685H13.6C13.4463 36.3685 13.2484 36.2593 13.2484 36.0427Z" fill="white" stroke="white" stroke-linecap="round"/>
<path fill-rule="evenodd" clip-rule="evenodd" d="M12.962 34.8676C12.962 34.651 13.1599 34.5417 13.3136 34.5417H17.6104C17.7642 34.5417 17.962 34.651 17.962 34.8676C17.962 35.0842 17.7642 35.1935 17.6104 35.1935H16.1751C16.3815 35.4998 16.4485 35.8629 16.3701 36.21C16.2558 36.7162 15.8415 37.1533 15.1832 37.3275L15.1275 37.3423C15.4997 37.5796 15.9243 37.8472 16.327 38.0955C16.6522 38.296 16.9615 38.4828 17.2169 38.6307C17.4799 38.783 17.6656 38.8819 17.7536 38.918C17.9149 38.9842 18.0334 39.185 17.9165 39.3768C17.8186 39.5375 17.6154 39.5745 17.4673 39.5137C17.3262 39.4558 17.0989 39.3315 16.843 39.1833C16.5795 39.0308 16.264 38.8401 15.9362 38.6381C15.2805 38.2338 14.5692 37.7799 14.1142 37.4851L13.5085 37.0928L14.9887 36.701C15.4659 36.5747 15.6824 36.2551 15.6978 35.9611C15.7128 35.6754 15.541 35.3549 15.1109 35.1935H13.3136C13.1599 35.1935 12.962 35.0842 12.962 34.8676Z" fill="white"/>
<path d="M17.4673 39.5137C17.6154 39.5745 17.8186 39.5375 17.9165 39.3768C18.0334 39.185 17.9149 38.9842 17.7536 38.918C17.6656 38.8819 17.4799 38.783 17.2169 38.6307C16.9615 38.4828 16.6522 38.296 16.327 38.0955C15.9243 37.8472 15.4997 37.5796 15.1275 37.3423L15.1832 37.3275C15.8415 37.1533 16.2558 36.7162 16.3701 36.21C16.4485 35.8629 16.3815 35.4998 16.1751 35.1935H17.6104C17.7642 35.1935 17.962 35.0842 17.962 34.8676C17.962 34.651 17.7642 34.5417 17.6104 34.5417H13.3136C13.1599 34.5417 12.962 34.651 12.962 34.8676C12.962 35.0842 13.1599 35.1935 13.3136 35.1935H15.1109C15.541 35.3549 15.7128 35.6754 15.6978 35.9611C15.6824 36.2551 15.4659 36.5747 14.9887 36.701L13.5085 37.0928L14.1142 37.4851C14.5692 37.7799 15.2805 38.2338 15.9362 38.6381C16.264 38.8401 16.5795 39.0308 16.843 39.1833C17.0989 39.3315 17.3262 39.4558 17.4673 39.5137ZM17.4673 39.5137L17.5464 39.321" stroke="white" stroke-linecap="round"/>
</svg>
