<svg width="38" height="28" viewBox="0 0 38 28" fill="none" xmlns="http://www.w3.org/2000/svg">
<path d="M23.0013 6.43836L22.9779 19.2867L18.2617 15.3456C18.0408 15.1613 17.7558 15.0723 17.4693 15.0982C17.1828 15.1241 16.9183 15.2627 16.734 15.4836C16.5497 15.7045 16.4607 15.9896 16.4866 16.2761C16.5125 16.5626 16.6511 16.8271 16.872 17.0114L23.3622 22.4399C23.4138 22.4764 23.4681 22.5091 23.5245 22.5377C23.5787 22.5378 23.6112 22.5378 23.6652 22.6138C23.7893 22.6631 23.9215 22.689 24.0551 22.6903C24.1886 22.6895 24.3209 22.664 24.4452 22.6152C24.4994 22.6153 24.5319 22.6153 24.5862 22.5396C24.6427 22.5112 24.6971 22.4787 24.7489 22.4424L31.2587 17.0375C31.3812 16.9359 31.4797 16.8085 31.5474 16.6645C31.6151 16.5204 31.6502 16.3632 31.6502 16.2041C31.6512 15.951 31.5635 15.7055 31.4023 15.5103C31.3116 15.4004 31.2 15.3096 31.0741 15.2429C30.9482 15.1762 30.8103 15.135 30.6685 15.1216C30.5266 15.1083 30.3835 15.1231 30.2474 15.1651C30.1112 15.2072 29.9847 15.2757 29.8751 15.3667L25.1446 19.2906L25.1679 6.44229C25.1685 6.15497 25.0548 5.87922 24.852 5.67568C24.6492 5.47215 24.3739 5.35751 24.0866 5.35699C23.7993 5.35647 23.5235 5.4701 23.32 5.6729C23.1164 5.87569 23.0018 6.15104 23.0013 6.43836Z" fill="#5B2D8F"/>
<path d="M11.9541 21.5616L11.9307 8.71333L7.21453 12.6544C6.99363 12.8387 6.70857 12.9277 6.42206 12.9018C6.13556 12.8759 5.87107 12.7373 5.68678 12.5164C5.5025 12.2955 5.41351 12.0104 5.4394 11.7239C5.46529 11.4374 5.60394 11.1729 5.82484 10.9886L12.315 5.56013C12.3666 5.52359 12.4209 5.49091 12.4773 5.46234C12.5315 5.46224 12.564 5.46218 12.618 5.38625C12.7421 5.33692 12.8743 5.31097 13.0079 5.30971C13.1414 5.31048 13.2737 5.33595 13.398 5.38483C13.4522 5.38473 13.4847 5.38467 13.539 5.46041C13.5955 5.48877 13.6499 5.52126 13.7016 5.55761L20.2115 10.9625C20.334 11.0641 20.4325 11.1915 20.5002 11.3355C20.5679 11.4796 20.603 11.6368 20.603 11.7959C20.604 12.049 20.5162 12.2945 20.3551 12.4897C20.2643 12.5996 20.1528 12.6904 20.0269 12.7571C19.901 12.8238 19.7631 12.865 19.6213 12.8784C19.4794 12.8917 19.3363 12.8769 19.2001 12.8349C19.064 12.7928 18.9375 12.7243 18.8278 12.6333L14.0974 8.7094L14.1207 21.5577C14.1212 21.845 14.0076 22.1208 13.8048 22.3243C13.602 22.5278 13.3267 22.6425 13.0394 22.643C12.752 22.6435 12.4763 22.5299 12.2728 22.3271C12.0692 22.1243 11.9546 21.849 11.9541 21.5616Z" fill="#5B2D8F"/>
</svg>
