<svg width="38" height="54" viewBox="0 0 38 54" fill="none" xmlns="http://www.w3.org/2000/svg">
<path d="M0.25 53.25H37.75V43.875C37.746 40.3953 36.3619 37.0592 33.9014 34.5986C31.4408 32.1381 28.1047 30.754 24.625 30.75H13.375C9.89525 30.754 6.55916 32.1381 4.09861 34.5986C1.63805 37.0592 0.25397 40.3953 0.25 43.875V53.25ZM5.875 13.875C5.875 16.4709 6.64477 19.0085 8.08696 21.1669C9.52915 23.3253 11.579 25.0075 13.9773 26.0009C16.3756 26.9943 19.0146 27.2542 21.5606 26.7478C24.1066 26.2414 26.4452 24.9913 28.2808 23.1558C30.1163 21.3202 31.3664 18.9816 31.8728 16.4356C32.3792 13.8896 32.1193 11.2506 31.1259 8.85228C30.1325 6.454 28.4503 4.40416 26.2919 2.96196C24.1335 1.51977 21.5959 0.75 19 0.75C15.519 0.75 12.1806 2.13281 9.71922 4.59422C7.25781 7.05564 5.875 10.394 5.875 13.875Z" fill="black"/>
</svg>
